<?xml version="1.0" encoding="utf-8"?>
<!-- Generator: Adobe Illustrator 19.1.0, SVG Export Plug-In . SVG Version: 6.00 Build 0)  -->
<svg version="1.1" id="Layer_1" xmlns="http://www.w3.org/2000/svg" xmlns:xlink="http://www.w3.org/1999/xlink" x="0px" y="0px"
	 viewBox="0 0 20 20" style="enable-background:new 0 0 20 20;" xml:space="preserve">
<style type="text/css">
	.st0{fill:#4A843D;}
</style>
<path class="st0" d="M10.1,0.9C5,0.9,0.9,5,0.9,10c0,5.1,4.1,9.2,9.2,9.2s9.2-4.1,9.2-9.2C19.3,5,15.1,0.9,10.1,0.9z M12.3,8
	c0,1.2-1,2.2-2.2,2.2S7.8,9.3,7.8,8s1-2.2,2.2-2.2S12.3,6.8,12.3,8z M13.7,8c0-2-1.6-3.6-3.6-3.6c-2,0-3.6,1.6-3.6,3.6
	c0,1.8,1.3,3.2,3,3.5c-2.2,0.2-4.2,1.6-5.2,3.7c-1.3-1.4-2-3.3-2-5.2c0-4.3,3.5-7.8,7.8-7.8c4.3,0,7.8,3.5,7.8,7.8
	c0,1.9-0.7,3.8-2,5.2c-1-2-2.9-3.4-5.2-3.7C12.4,11.3,13.7,9.8,13.7,8z M5.3,16.3c0.7-2,2.6-3.3,4.7-3.3c2.1,0,4,1.3,4.7,3.3
	c0,0,0,0,0,0c-1.4,1-3,1.6-4.7,1.6C8.3,17.9,6.7,17.3,5.3,16.3C5.3,16.3,5.3,16.3,5.3,16.3z"/>
</svg>
