<?xml version="1.0" encoding="utf-8"?>
<!-- Generator: Adobe Illustrator 19.1.0, SVG Export Plug-In . SVG Version: 6.00 Build 0)  -->
<svg version="1.1" id="Layer_1" xmlns="http://www.w3.org/2000/svg" xmlns:xlink="http://www.w3.org/1999/xlink" x="0px" y="0px"
	 viewBox="0 0 20 20" style="enable-background:new 0 0 20 20;" xml:space="preserve">
<style type="text/css">
	.st0{fill:#962D24;}
</style>
<path class="st0" d="M15.7,18.4H4.2V5.3H2.6v13.1c0,0.9,0.7,1.6,1.6,1.6h11.4c0.9,0,1.6-0.7,1.6-1.6V5.3h-1.6V18.4z M13.6,2.8V2
	c0-0.9-0.7-1.6-1.6-1.6H7.9C7,0.4,6.3,1.1,6.3,2v0.8H1.4v1.6h17.2V2.8H13.6z M12,2.8H7.9V2H12V2.8z M5.9,6.5v10.2h1.6V6.5H5.9z
	 M12.4,6.5v10.2h1.6V6.5H12.4z M9.2,6.5v10.2h1.6V6.5H9.2z"/>
</svg>
