<?xml version="1.0" encoding="utf-8"?>
<!-- Generator: Adobe Illustrator 15.1.0, SVG Export Plug-In . SVG Version: 6.00 Build 0)  -->
<!DOCTYPE svg PUBLIC "-//W3C//DTD SVG 1.1//EN" "http://www.w3.org/Graphics/SVG/1.1/DTD/svg11.dtd">
<svg version="1.1" id="Layer_1" xmlns="http://www.w3.org/2000/svg" xmlns:xlink="http://www.w3.org/1999/xlink" x="0px" y="0px"
	 width="21.083px" height="21.125px" viewBox="2.394 2.394 21.083 21.125" enable-background="new 2.394 2.394 21.083 21.125"
	 xml:space="preserve">
<circle fill="none" stroke="#000000" stroke-miterlimit="10" cx="12.935" cy="12.935" r="10"/>
<g id="_" enable-background="new    ">
	<path d="M14.127,9.441c0-0.82-0.547-1.26-1.356-1.26c-0.749,0-1.295,0.38-1.841,0.92L9.292,7.62c0.911-1.08,2.185-1.82,3.683-1.82
		c2.286,0,4.006,1.061,4.006,3.421c0,2.481-3.035,3.22-2.792,5.601h-2.61C11.173,12.082,14.127,10.941,14.127,9.441z M12.873,15.982
		c1.032,0,1.801,0.801,1.801,1.86c0,1.04-0.769,1.841-1.801,1.841c-1.032,0-1.78-0.801-1.78-1.841
		C11.092,16.783,11.841,15.982,12.873,15.982z"/>
</g>
</svg>
